<svg width="107" height="60" viewBox="0 0 107 60" fill="none" xmlns="http://www.w3.org/2000/svg">
<path d="M8.05225 4.64844H11.4214V15.9688C11.4214 17.0094 11.1893 17.9303 10.7251 18.7314C10.2684 19.5251 9.62077 20.139 8.78223 20.5732C7.94368 21.0075 6.99658 21.2246 5.94092 21.2246C4.21143 21.2246 2.86377 20.7866 1.89795 19.9106C0.932129 19.0272 0.449219 17.7806 0.449219 16.1709H3.84082C3.84082 16.972 4.00928 17.5635 4.34619 17.9453C4.68311 18.3271 5.21468 18.5181 5.94092 18.5181C6.5848 18.5181 7.09766 18.2972 7.47949 17.8555C7.86133 17.4137 8.05225 16.7848 8.05225 15.9688V4.64844ZM21.1357 21C20.986 20.708 20.8774 20.3449 20.8101 19.9106C20.0239 20.7866 19.002 21.2246 17.7441 21.2246C16.5537 21.2246 15.5654 20.8802 14.7793 20.1914C14.0007 19.5026 13.6113 18.6341 13.6113 17.5859C13.6113 16.2982 14.0868 15.3099 15.0376 14.6211C15.9959 13.9323 17.3773 13.5841 19.1816 13.5767H20.6753V12.8804C20.6753 12.3188 20.5293 11.8696 20.2373 11.5327C19.9528 11.1958 19.4998 11.0273 18.8784 11.0273C18.3319 11.0273 17.9014 11.1584 17.5869 11.4204C17.2799 11.6825 17.1265 12.0418 17.1265 12.4985H13.8809C13.8809 11.7948 14.098 11.1434 14.5322 10.5444C14.9665 9.94548 15.5804 9.47754 16.374 9.14062C17.1676 8.79622 18.0586 8.62402 19.0469 8.62402C20.5443 8.62402 21.731 9.00212 22.6069 9.7583C23.4904 10.507 23.9321 11.5627 23.9321 12.9253V18.1924C23.9396 19.3454 24.1006 20.2176 24.415 20.8091V21H21.1357ZM18.4517 18.7427C18.9308 18.7427 19.3726 18.6379 19.7769 18.4282C20.1812 18.2111 20.4806 17.9229 20.6753 17.5635V15.4746H19.4624C17.8377 15.4746 16.973 16.0361 16.8682 17.1592L16.8569 17.3501C16.8569 17.7544 16.9992 18.0876 17.2837 18.3496C17.5682 18.6117 17.9575 18.7427 18.4517 18.7427ZM37.3638 15.0366C37.3638 16.9084 36.937 18.4095 36.0835 19.54C35.2375 20.6631 34.092 21.2246 32.647 21.2246C31.4191 21.2246 30.4271 20.7979 29.6709 19.9443V25.6719H26.4253V8.84863H29.4351L29.5474 10.0391C30.3335 9.0957 31.3592 8.62402 32.6245 8.62402C34.1219 8.62402 35.2861 9.17806 36.1172 10.2861C36.9482 11.3942 37.3638 12.9215 37.3638 14.8682V15.0366ZM34.1182 14.8008C34.1182 13.6702 33.916 12.798 33.5117 12.1841C33.1149 11.5701 32.5347 11.2632 31.771 11.2632C30.7528 11.2632 30.0527 11.6525 29.6709 12.4312V17.4062C30.0677 18.2074 30.7752 18.6079 31.7935 18.6079C33.3433 18.6079 34.1182 17.3389 34.1182 14.8008ZM46.4268 21C46.277 20.708 46.1685 20.3449 46.1011 19.9106C45.3149 20.7866 44.293 21.2246 43.0352 21.2246C41.8447 21.2246 40.8564 20.8802 40.0703 20.1914C39.2917 19.5026 38.9023 18.6341 38.9023 17.5859C38.9023 16.2982 39.3778 15.3099 40.3286 14.6211C41.2869 13.9323 42.6683 13.5841 44.4727 13.5767H45.9663V12.8804C45.9663 12.3188 45.8203 11.8696 45.5283 11.5327C45.2438 11.1958 44.7909 11.0273 44.1694 11.0273C43.6229 11.0273 43.1924 11.1584 42.8779 11.4204C42.571 11.6825 42.4175 12.0418 42.4175 12.4985H39.1719C39.1719 11.7948 39.389 11.1434 39.8232 10.5444C40.2575 9.94548 40.8714 9.47754 41.665 9.14062C42.4587 8.79622 43.3496 8.62402 44.3379 8.62402C45.8353 8.62402 47.022 9.00212 47.8979 9.7583C48.7814 10.507 49.2231 11.5627 49.2231 12.9253V18.1924C49.2306 19.3454 49.3916 20.2176 49.7061 20.8091V21H46.4268ZM43.7427 18.7427C44.2218 18.7427 44.6636 18.6379 45.0679 18.4282C45.4722 18.2111 45.7716 17.9229 45.9663 17.5635V15.4746H44.7534C43.1287 15.4746 42.264 16.0361 42.1592 17.1592L42.1479 17.3501C42.1479 17.7544 42.2902 18.0876 42.5747 18.3496C42.8592 18.6117 43.2485 18.7427 43.7427 18.7427ZM54.7036 8.84863L54.8047 10.2524C55.6732 9.16683 56.8374 8.62402 58.2974 8.62402C59.5851 8.62402 60.5435 9.00212 61.1724 9.7583C61.8013 10.5145 62.1232 11.645 62.1382 13.1499V21H58.8926V13.2285C58.8926 12.5397 58.7428 12.0418 58.4434 11.7349C58.1439 11.4204 57.646 11.2632 56.9497 11.2632C56.0363 11.2632 55.3512 11.6525 54.8945 12.4312V21H51.6489V8.84863H54.7036ZM70.2017 21.2246C68.4198 21.2246 66.9673 20.6781 65.8442 19.585C64.7287 18.4919 64.1709 17.0356 64.1709 15.2163V14.9019C64.1709 13.6815 64.4067 12.5921 64.8784 11.6338C65.3501 10.668 66.0164 9.92676 66.8774 9.41016C67.7459 8.88607 68.7342 8.62402 69.8423 8.62402C71.5044 8.62402 72.8109 9.14811 73.7617 10.1963C74.7201 11.2445 75.1992 12.7306 75.1992 14.6548V15.98H67.4614C67.5662 16.7736 67.8807 17.41 68.4048 17.8892C68.9364 18.3683 69.6064 18.6079 70.415 18.6079C71.6654 18.6079 72.6424 18.1549 73.3462 17.249L74.9409 19.0347C74.4543 19.7235 73.7954 20.2625 72.9644 20.6519C72.1333 21.0337 71.2124 21.2246 70.2017 21.2246ZM69.8311 11.252C69.1872 11.252 68.6631 11.4691 68.2588 11.9033C67.862 12.3376 67.6074 12.959 67.4951 13.7676H72.0098V13.5093C71.9948 12.7905 71.8001 12.2365 71.4258 11.8472C71.0514 11.4504 70.5199 11.252 69.8311 11.252ZM83.6333 17.6421C83.6333 17.2453 83.4349 16.9346 83.0381 16.71C82.6488 16.4779 82.0199 16.272 81.1514 16.0923C78.2614 15.4858 76.8164 14.258 76.8164 12.4087C76.8164 11.3306 77.2619 10.4321 78.1528 9.71338C79.0513 8.98714 80.223 8.62402 81.668 8.62402C83.2103 8.62402 84.4419 8.98714 85.3628 9.71338C86.2912 10.4396 86.7554 11.383 86.7554 12.5435H83.5098C83.5098 12.0793 83.36 11.6974 83.0605 11.3979C82.7611 11.091 82.2931 10.9375 81.6567 10.9375C81.1102 10.9375 80.6872 11.061 80.3877 11.3081C80.0882 11.5552 79.9385 11.8696 79.9385 12.2515C79.9385 12.6108 80.1069 12.9028 80.4438 13.1274C80.7882 13.3446 81.3647 13.5355 82.1733 13.7002C82.9819 13.8574 83.6632 14.0371 84.2173 14.2393C85.9318 14.8682 86.7891 15.9575 86.7891 17.5073C86.7891 18.6154 86.3136 19.5138 85.3628 20.2026C84.4119 20.884 83.1841 21.2246 81.6792 21.2246C80.661 21.2246 79.755 21.0449 78.9614 20.6855C78.1753 20.3187 77.5576 19.8208 77.1084 19.1919C76.6592 18.5555 76.4346 17.8704 76.4346 17.1367H79.5117C79.5417 17.7132 79.755 18.1549 80.1519 18.4619C80.5487 18.7689 81.0802 18.9224 81.7466 18.9224C82.368 18.9224 82.8359 18.8063 83.1504 18.5742C83.4723 18.3346 83.6333 18.0239 83.6333 17.6421ZM94.4819 21.2246C92.7 21.2246 91.2476 20.6781 90.1245 19.585C89.009 18.4919 88.4512 17.0356 88.4512 15.2163V14.9019C88.4512 13.6815 88.687 12.5921 89.1587 11.6338C89.6304 10.668 90.2967 9.92676 91.1577 9.41016C92.0262 8.88607 93.0145 8.62402 94.1226 8.62402C95.7847 8.62402 97.0911 9.14811 98.042 10.1963C99.0003 11.2445 99.4795 12.7306 99.4795 14.6548V15.98H91.7417C91.8465 16.7736 92.161 17.41 92.6851 17.8892C93.2166 18.3683 93.8867 18.6079 94.6953 18.6079C95.9456 18.6079 96.9227 18.1549 97.6265 17.249L99.2212 19.0347C98.7345 19.7235 98.0757 20.2625 97.2446 20.6519C96.4136 21.0337 95.4927 21.2246 94.4819 21.2246ZM94.1113 11.252C93.4674 11.252 92.9434 11.4691 92.5391 11.9033C92.1423 12.3376 91.8877 12.959 91.7754 13.7676H96.29V13.5093C96.2751 12.7905 96.0804 12.2365 95.7061 11.8472C95.3317 11.4504 94.8001 11.252 94.1113 11.252ZM12.1851 42.0366C12.1851 43.9084 11.7583 45.4095 10.9048 46.54C10.0588 47.6631 8.91325 48.2246 7.46826 48.2246C6.2404 48.2246 5.24837 47.7979 4.49219 46.9443V52.6719H1.24658V35.8486H4.25635L4.36865 37.0391C5.15479 36.0957 6.1805 35.624 7.4458 35.624C8.9432 35.624 10.1074 36.1781 10.9385 37.2861C11.7695 38.3942 12.1851 39.9215 12.1851 41.8682V42.0366ZM8.93945 41.8008C8.93945 40.6702 8.7373 39.798 8.33301 39.1841C7.9362 38.5701 7.35596 38.2632 6.59229 38.2632C5.57406 38.2632 4.87402 38.6525 4.49219 39.4312V44.4062C4.889 45.2074 5.59652 45.6079 6.61475 45.6079C8.16455 45.6079 8.93945 44.3389 8.93945 41.8008ZM13.7012 41.812C13.7012 40.6066 13.9333 39.5322 14.3975 38.5889C14.8617 37.6455 15.528 36.9155 16.3965 36.3989C17.2725 35.8823 18.2869 35.624 19.4399 35.624C21.0796 35.624 22.416 36.1257 23.4492 37.1289C24.4899 38.1322 25.0701 39.4948 25.1899 41.2168L25.2124 42.0479C25.2124 43.9121 24.6921 45.4095 23.6514 46.54C22.6107 47.6631 21.2144 48.2246 19.4624 48.2246C17.7104 48.2246 16.3104 47.6631 15.2622 46.54C14.2215 45.417 13.7012 43.8896 13.7012 41.958V41.812ZM16.9468 42.0479C16.9468 43.2008 17.1639 44.0843 17.5981 44.6982C18.0324 45.3047 18.6538 45.6079 19.4624 45.6079C20.2485 45.6079 20.8625 45.3084 21.3042 44.7095C21.7459 44.103 21.9668 43.1372 21.9668 41.812C21.9668 40.6815 21.7459 39.8055 21.3042 39.1841C20.8625 38.5627 20.241 38.252 19.4399 38.252C18.6463 38.252 18.0324 38.5627 17.5981 39.1841C17.1639 39.798 16.9468 40.7526 16.9468 42.0479ZM30.6367 48H27.3799V35.8486H30.6367V48ZM27.189 32.7041C27.189 32.2174 27.3499 31.8169 27.6719 31.5024C28.0013 31.188 28.4468 31.0308 29.0083 31.0308C29.5623 31.0308 30.0041 31.188 30.3335 31.5024C30.6629 31.8169 30.8276 32.2174 30.8276 32.7041C30.8276 33.1982 30.6592 33.6025 30.3223 33.917C29.9928 34.2314 29.5549 34.3887 29.0083 34.3887C28.4618 34.3887 28.02 34.2314 27.6831 33.917C27.3537 33.6025 27.189 33.1982 27.189 32.7041ZM36.3081 35.8486L36.4092 37.2524C37.2777 36.1668 38.4419 35.624 39.9019 35.624C41.1896 35.624 42.1479 36.0021 42.7769 36.7583C43.4058 37.5145 43.7277 38.645 43.7427 40.1499V48H40.4971V40.2285C40.4971 39.5397 40.3473 39.0418 40.0479 38.7349C39.7484 38.4204 39.2505 38.2632 38.5542 38.2632C37.6408 38.2632 36.9557 38.6525 36.499 39.4312V48H33.2534V35.8486H36.3081ZM50.0991 32.8613V35.8486H52.1768V38.2295H50.0991V44.2939C50.0991 44.7432 50.1852 45.0651 50.3574 45.2598C50.5296 45.4544 50.859 45.5518 51.3457 45.5518C51.7051 45.5518 52.0233 45.5256 52.3003 45.4731V47.9326C51.6639 48.1273 51.0088 48.2246 50.335 48.2246C48.0589 48.2246 46.8984 47.0754 46.8535 44.7769V38.2295H45.0791V35.8486H46.8535V32.8613H50.0991Z" fill="white"/>
<path d="M0 29H87.5" stroke="white"/>
<circle cx="59" cy="46" r="2" fill="white"/>
</svg>
